solid OpenSCAD_Model
  facet normal -1 0 0
    outer loop
      vertex -10 5 0
      vertex -10 -5 0
      vertex -10 5 3
    endloop
  endfacet
  facet normal -1 0 0
    outer loop
      vertex -10 5 3
      vertex -10 10 5
      vertex -10 10 3
    endloop
  endfacet
  facet normal -1 0 0
    outer loop
      vertex -10 -5 3
      vertex -10 5 3
      vertex -10 -5 0
    endloop
  endfacet
  facet normal -1 0 0
    outer loop
      vertex -10 5 3
      vertex -10 -5 3
      vertex -10 10 5
    endloop
  endfacet
  facet normal -1 0 0
    outer loop
      vertex -10 -10 5
      vertex -10 -5 3
      vertex -10 -10 3
    endloop
  endfacet
  facet normal -1 0 0
    outer loop
      vertex -10 -5 3
      vertex -10 -10 5
      vertex -10 10 5
    endloop
  endfacet
  facet normal -0 0 1
    outer loop
      vertex 0 2 5
      vertex 7.5 -2 5
      vertex 7.5 2 5
    endloop
  endfacet
  facet normal 0 0 1
    outer loop
      vertex 7.5 -2 5
      vertex 0 2 5
      vertex 0 -2 5
    endloop
  endfacet
  facet normal 0 0 1
    outer loop
      vertex 7.5 2 5
      vertex 10 10 5
      vertex 7.5 2.5 5
    endloop
  endfacet
  facet normal 0 0 1
    outer loop
      vertex 10 10 5
      vertex -7.5 2.5 5
      vertex 7.5 2.5 5
    endloop
  endfacet
  facet normal 0 0 1
    outer loop
      vertex -7.5 2.5 5
      vertex -10 10 5
      vertex -7.5 -2.5 5
    endloop
  endfacet
  facet normal -0 0 1
    outer loop
      vertex -10 10 5
      vertex -7.5 2.5 5
      vertex 10 10 5
    endloop
  endfacet
  facet normal 0 0 1
    outer loop
      vertex 10 10 5
      vertex 7.5 2 5
      vertex 10 -10 5
    endloop
  endfacet
  facet normal -0 0 1
    outer loop
      vertex 7.5 -2 5
      vertex 10 -10 5
      vertex 7.5 2 5
    endloop
  endfacet
  facet normal -0 0 1
    outer loop
      vertex 7.5 -2.5 5
      vertex 10 -10 5
      vertex 7.5 -2 5
    endloop
  endfacet
  facet normal -0 0 1
    outer loop
      vertex -7.5 -2.5 5
      vertex 10 -10 5
      vertex 7.5 -2.5 5
    endloop
  endfacet
  facet normal 0 0 1
    outer loop
      vertex -7.5 -2.5 5
      vertex -10 -10 5
      vertex 10 -10 5
    endloop
  endfacet
  facet normal 0 0 1
    outer loop
      vertex -10 -10 5
      vertex -7.5 -2.5 5
      vertex -10 10 5
    endloop
  endfacet
  facet normal 1 0 0
    outer loop
      vertex 10 10 5
      vertex 10 6 3
      vertex 10 10 3
    endloop
  endfacet
  facet normal 1 0 0
    outer loop
      vertex 10 10 5
      vertex 10 3 3
      vertex 10 6 3
    endloop
  endfacet
  facet normal 1 0 0
    outer loop
      vertex 10 3 3
      vertex 10 -3 3
      vertex 10 3 0
    endloop
  endfacet
  facet normal 1 0 0
    outer loop
      vertex 10 10 5
      vertex 10 -3 3
      vertex 10 3 3
    endloop
  endfacet
  facet normal 1 -0 0
    outer loop
      vertex 10 -10 5
      vertex 10 -3 3
      vertex 10 10 5
    endloop
  endfacet
  facet normal 1 0 0
    outer loop
      vertex 10 -3 3
      vertex 10 -10 5
      vertex 10 -6 3
    endloop
  endfacet
  facet normal 1 0 0
    outer loop
      vertex 10 -6 3
      vertex 10 -10 5
      vertex 10 -10 3
    endloop
  endfacet
  facet normal 1 0 0
    outer loop
      vertex 10 3 0
      vertex 10 -3 3
      vertex 10 -3 0
    endloop
  endfacet
  facet normal 0 1 -0
    outer loop
      vertex 5.5 5 0
      vertex -10 5 3
      vertex 5.5 5 3
    endloop
  endfacet
  facet normal 0 1 0
    outer loop
      vertex -10 5 3
      vertex 5.5 5 0
      vertex -10 5 0
    endloop
  endfacet
  facet normal 0 0 -1
    outer loop
      vertex 5.5 -5 0
      vertex -7.5 -2.5 0
      vertex 5.5 -3 0
    endloop
  endfacet
  facet normal -0 0 -1
    outer loop
      vertex -7.5 -2.5 0
      vertex -10 -5 0
      vertex -7.5 2.5 0
    endloop
  endfacet
  facet normal 0 0 -1
    outer loop
      vertex -10 -5 0
      vertex -7.5 -2.5 0
      vertex 5.5 -5 0
    endloop
  endfacet
  facet normal 0 0 -1
    outer loop
      vertex 10 -3 0
      vertex 7.5 -2.5 0
      vertex 10 3 0
    endloop
  endfacet
  facet normal 0 0 -1
    outer loop
      vertex 5.5 -3 0
      vertex 7.5 -2.5 0
      vertex 10 -3 0
    endloop
  endfacet
  facet normal -0 0 -1
    outer loop
      vertex 7.5 -2.5 0
      vertex 5.5 -3 0
      vertex -7.5 -2.5 0
    endloop
  endfacet
  facet normal 0 0 -1
    outer loop
      vertex 7.5 2.5 0
      vertex 10 3 0
      vertex 7.5 -2.5 0
    endloop
  endfacet
  facet normal 0 0 -1
    outer loop
      vertex 7.5 2.5 0
      vertex 5.5 3 0
      vertex 10 3 0
    endloop
  endfacet
  facet normal 0 0 -1
    outer loop
      vertex -7.5 2.5 0
      vertex 5.5 3 0
      vertex 7.5 2.5 0
    endloop
  endfacet
  facet normal 0 0 -1
    outer loop
      vertex -7.5 2.5 0
      vertex 5.5 5 0
      vertex 5.5 3 0
    endloop
  endfacet
  facet normal 0 0 -1
    outer loop
      vertex -7.5 2.5 0
      vertex -10 5 0
      vertex 5.5 5 0
    endloop
  endfacet
  facet normal 0 0 -1
    outer loop
      vertex -10 5 0
      vertex -7.5 2.5 0
      vertex -10 -5 0
    endloop
  endfacet
  facet normal 0 -1 0
    outer loop
      vertex -10 -5 0
      vertex 5.5 -5 3
      vertex -10 -5 3
    endloop
  endfacet
  facet normal 0 -1 -0
    outer loop
      vertex 5.5 -5 3
      vertex -10 -5 0
      vertex 5.5 -5 0
    endloop
  endfacet
  facet normal 0 0 -1
    outer loop
      vertex 5.5 5 3
      vertex -10 5 3
      vertex 5.5 6 3
    endloop
  endfacet
  facet normal 0 0 -1
    outer loop
      vertex 5.5 6 3
      vertex 10 10 3
      vertex 10 6 3
    endloop
  endfacet
  facet normal 0 0 -1
    outer loop
      vertex -10 10 3
      vertex 5.5 6 3
      vertex -10 5 3
    endloop
  endfacet
  facet normal 0 0 -1
    outer loop
      vertex 5.5 6 3
      vertex -10 10 3
      vertex 10 10 3
    endloop
  endfacet
  facet normal 0 0 -1
    outer loop
      vertex 10 -10 3
      vertex 5.5 -6 3
      vertex 10 -6 3
    endloop
  endfacet
  facet normal 0 0 -1
    outer loop
      vertex -10 -10 3
      vertex 5.5 -6 3
      vertex 10 -10 3
    endloop
  endfacet
  facet normal 0 0 -1
    outer loop
      vertex -10 -5 3
      vertex 5.5 -6 3
      vertex -10 -10 3
    endloop
  endfacet
  facet normal 0 0 -1
    outer loop
      vertex 5.5 -6 3
      vertex -10 -5 3
      vertex 5.5 -5 3
    endloop
  endfacet
  facet normal 0 0 -1
    outer loop
      vertex 5.5 5 3
      vertex 10 3 3
      vertex 5.5 3 3
    endloop
  endfacet
  facet normal 0 0 -1
    outer loop
      vertex 10 3 3
      vertex 5.5 5 3
      vertex 10 6 3
    endloop
  endfacet
  facet normal -0 0 -1
    outer loop
      vertex 10 6 3
      vertex 5.5 5 3
      vertex 5.5 6 3
    endloop
  endfacet
  facet normal 0 0 -1
    outer loop
      vertex 5.5 -5 3
      vertex 10 -6 3
      vertex 5.5 -6 3
    endloop
  endfacet
  facet normal 0 0 -1
    outer loop
      vertex 10 -6 3
      vertex 5.5 -5 3
      vertex 10 -3 3
    endloop
  endfacet
  facet normal -0 0 -1
    outer loop
      vertex 10 -3 3
      vertex 5.5 -5 3
      vertex 5.5 -3 3
    endloop
  endfacet
  facet normal 0 -1 0
    outer loop
      vertex -10 -10 3
      vertex 10 -10 5
      vertex -10 -10 5
    endloop
  endfacet
  facet normal 0 -1 -0
    outer loop
      vertex 10 -10 5
      vertex -10 -10 3
      vertex 10 -10 3
    endloop
  endfacet
  facet normal 0 1 -0
    outer loop
      vertex 10 10 3
      vertex -10 10 5
      vertex 10 10 5
    endloop
  endfacet
  facet normal 0 1 0
    outer loop
      vertex -10 10 5
      vertex 10 10 3
      vertex -10 10 3
    endloop
  endfacet
  facet normal 1 -0 0
    outer loop
      vertex 5.5 -5 3
      vertex 5.5 -3 0
      vertex 5.5 -3 3
    endloop
  endfacet
  facet normal 1 0 0
    outer loop
      vertex 5.5 -3 0
      vertex 5.5 -5 3
      vertex 5.5 -5 0
    endloop
  endfacet
  facet normal 0 -1 0
    outer loop
      vertex 5.5 -3 0
      vertex 10 -3 3
      vertex 5.5 -3 3
    endloop
  endfacet
  facet normal 0 -1 -0
    outer loop
      vertex 10 -3 3
      vertex 5.5 -3 0
      vertex 10 -3 0
    endloop
  endfacet
  facet normal 1 -0 0
    outer loop
      vertex 5.5 3 3
      vertex 5.5 5 0
      vertex 5.5 5 3
    endloop
  endfacet
  facet normal 1 0 0
    outer loop
      vertex 5.5 5 0
      vertex 5.5 3 3
      vertex 5.5 3 0
    endloop
  endfacet
  facet normal 0 1 -0
    outer loop
      vertex 10 3 0
      vertex 5.5 3 3
      vertex 10 3 3
    endloop
  endfacet
  facet normal 0 1 0
    outer loop
      vertex 5.5 3 3
      vertex 10 3 0
      vertex 5.5 3 0
    endloop
  endfacet
  facet normal 1 -0 0
    outer loop
      vertex -7.5 -2.5 5
      vertex -7.5 2.5 0
      vertex -7.5 2.5 5
    endloop
  endfacet
  facet normal 1 0 0
    outer loop
      vertex -7.5 2.5 0
      vertex -7.5 -2.5 5
      vertex -7.5 -2.5 0
    endloop
  endfacet
  facet normal -1 0 0
    outer loop
      vertex 7.5 2.5 0
      vertex 7.5 2 3
      vertex 7.5 2.5 5
    endloop
  endfacet
  facet normal -1 0 0
    outer loop
      vertex 7.5 2.5 0
      vertex 7.5 -2 3
      vertex 7.5 2 3
    endloop
  endfacet
  facet normal -1 0 0
    outer loop
      vertex 7.5 -2.5 0
      vertex 7.5 -2 3
      vertex 7.5 2.5 0
    endloop
  endfacet
  facet normal -1 0 0
    outer loop
      vertex 7.5 -2.5 5
      vertex 7.5 -2 3
      vertex 7.5 -2.5 0
    endloop
  endfacet
  facet normal -1 0 0
    outer loop
      vertex 7.5 -2 3
      vertex 7.5 -2.5 5
      vertex 7.5 -2 5
    endloop
  endfacet
  facet normal -1 -0 0
    outer loop
      vertex 7.5 2.5 5
      vertex 7.5 2 3
      vertex 7.5 2 5
    endloop
  endfacet
  facet normal 0 -1 0
    outer loop
      vertex -7.5 2.5 0
      vertex 7.5 2.5 5
      vertex -7.5 2.5 5
    endloop
  endfacet
  facet normal 0 -1 -0
    outer loop
      vertex 7.5 2.5 5
      vertex -7.5 2.5 0
      vertex 7.5 2.5 0
    endloop
  endfacet
  facet normal 0 1 -0
    outer loop
      vertex 7.5 -2.5 0
      vertex -7.5 -2.5 5
      vertex 7.5 -2.5 5
    endloop
  endfacet
  facet normal 0 1 0
    outer loop
      vertex -7.5 -2.5 5
      vertex 7.5 -2.5 0
      vertex -7.5 -2.5 0
    endloop
  endfacet
  facet normal 0 1 -0
    outer loop
      vertex 7.5 2 3
      vertex 0 2 5
      vertex 7.5 2 5
    endloop
  endfacet
  facet normal 0 1 0
    outer loop
      vertex 0 2 5
      vertex 7.5 2 3
      vertex -5.92819 2 3
    endloop
  endfacet
  facet normal 0 1 0
    outer loop
      vertex 0 2 5
      vertex -5.92819 2 3
      vertex -6.92819 2 5
    endloop
  endfacet
  facet normal 0 1 0
    outer loop
      vertex -1.73204 2 8
      vertex 0 2 5
      vertex -6.92819 2 5
    endloop
  endfacet
  facet normal 0 -1 0
    outer loop
      vertex -5.92819 -2 3
      vertex -1.73204 -2 8
      vertex -6.92819 -2 5
    endloop
  endfacet
  facet normal 0 -1 -0
    outer loop
      vertex -1.73204 -2 8
      vertex -5.92819 -2 3
      vertex 0 -2 5
    endloop
  endfacet
  facet normal 0 -1 0
    outer loop
      vertex 7.5 -2 3
      vertex 0 -2 5
      vertex -5.92819 -2 3
    endloop
  endfacet
  facet normal 0 -1 0
    outer loop
      vertex 0 -2 5
      vertex 7.5 -2 3
      vertex 7.5 -2 5
    endloop
  endfacet
  facet normal 0.866027 -0 0.499998
    outer loop
      vertex -1.73204 -2 8
      vertex 0 2 5
      vertex -1.73204 2 8
    endloop
  endfacet
  facet normal 0.866027 0 0.499998
    outer loop
      vertex 0 2 5
      vertex -1.73204 -2 8
      vertex 0 -2 5
    endloop
  endfacet
  facet normal -0.5 0 0.866025
    outer loop
      vertex -6.92819 2 5
      vertex -1.73204 -2 8
      vertex -1.73204 2 8
    endloop
  endfacet
  facet normal -0.5 0 0.866025
    outer loop
      vertex -1.73204 -2 8
      vertex -6.92819 2 5
      vertex -6.92819 -2 5
    endloop
  endfacet
  facet normal -0.894427 -0 -0.447213
    outer loop
      vertex -6.92819 2 5
      vertex -5.92819 2 3
      vertex -6.92819 -2 5
    endloop
  endfacet
  facet normal -0.894427 -1.06624e-07 -0.447214
    outer loop
      vertex -5.92819 2 3
      vertex -5.92819 -2 3
      vertex -6.92819 -2 5
    endloop
  endfacet
  facet normal 0 -2.38419e-07 -1
    outer loop
      vertex -5.92819 -2 3
      vertex 7.5 2 3
      vertex 7.5 -2 3
    endloop
  endfacet
  facet normal -0 -2.38419e-07 -1
    outer loop
      vertex 7.5 2 3
      vertex -5.92819 -2 3
      vertex -5.92819 2 3
    endloop
  endfacet
endsolid OpenSCAD_Model
