solid OpenSCAD_Model
  facet normal -1 0 0
    outer loop
      vertex -10.5 5.5 0
      vertex -10.5 -5.5 0
      vertex -10.5 5.5 2.5
    endloop
  endfacet
  facet normal -1 0 0
    outer loop
      vertex -10.5 5.5 2.5
      vertex -10.5 11 5.5
      vertex -10.5 11 2.5
    endloop
  endfacet
  facet normal -1 0 0
    outer loop
      vertex -10.5 -5.5 2.5
      vertex -10.5 5.5 2.5
      vertex -10.5 -5.5 0
    endloop
  endfacet
  facet normal -1 0 0
    outer loop
      vertex -10.5 5.5 2.5
      vertex -10.5 -5.5 2.5
      vertex -10.5 11 5.5
    endloop
  endfacet
  facet normal -1 0 0
    outer loop
      vertex -10.5 -11 5.5
      vertex -10.5 -5.5 2.5
      vertex -10.5 -11 2.5
    endloop
  endfacet
  facet normal -1 0 0
    outer loop
      vertex -10.5 -5.5 2.5
      vertex -10.5 -11 5.5
      vertex -10.5 11 5.5
    endloop
  endfacet
  facet normal 0 0 1
    outer loop
      vertex 10.5 11 5.5
      vertex -1 3 5.5
      vertex 10.5 -11 5.5
    endloop
  endfacet
  facet normal -0 0 1
    outer loop
      vertex -10.5 11 5.5
      vertex -1 3 5.5
      vertex 10.5 11 5.5
    endloop
  endfacet
  facet normal 0 0 1
    outer loop
      vertex -4.5 3 5.5
      vertex -10.5 11 5.5
      vertex -4.5 -3 5.5
    endloop
  endfacet
  facet normal 0 0 1
    outer loop
      vertex -1 3 5.5
      vertex -10.5 11 5.5
      vertex -4.5 3 5.5
    endloop
  endfacet
  facet normal -0 0 1
    outer loop
      vertex -1 -3 5.5
      vertex 10.5 -11 5.5
      vertex -1 3 5.5
    endloop
  endfacet
  facet normal 0 0 1
    outer loop
      vertex -10.5 -11 5.5
      vertex -1 -3 5.5
      vertex -4.5 -3 5.5
    endloop
  endfacet
  facet normal 0 0 1
    outer loop
      vertex -1 -3 5.5
      vertex -10.5 -11 5.5
      vertex 10.5 -11 5.5
    endloop
  endfacet
  facet normal 0 0 1
    outer loop
      vertex -10.5 -11 5.5
      vertex -4.5 -3 5.5
      vertex -10.5 11 5.5
    endloop
  endfacet
  facet normal 1 0 0
    outer loop
      vertex 10.5 11 5.5
      vertex 10.5 5.5 2.5
      vertex 10.5 11 2.5
    endloop
  endfacet
  facet normal 1 0 0
    outer loop
      vertex 10.5 5.5 2.5
      vertex 10.5 -5.5 2.5
      vertex 10.5 5.5 0
    endloop
  endfacet
  facet normal 1 0 0
    outer loop
      vertex 10.5 11 5.5
      vertex 10.5 -5.5 2.5
      vertex 10.5 5.5 2.5
    endloop
  endfacet
  facet normal 1 -0 0
    outer loop
      vertex 10.5 -11 5.5
      vertex 10.5 -5.5 2.5
      vertex 10.5 11 5.5
    endloop
  endfacet
  facet normal 1 0 0
    outer loop
      vertex 10.5 -5.5 2.5
      vertex 10.5 -11 5.5
      vertex 10.5 -11 2.5
    endloop
  endfacet
  facet normal 1 0 0
    outer loop
      vertex 10.5 5.5 0
      vertex 10.5 -5.5 2.5
      vertex 10.5 -5.5 0
    endloop
  endfacet
  facet normal 0 1 -0
    outer loop
      vertex 10.5 5.5 0
      vertex -10.5 5.5 2.5
      vertex 10.5 5.5 2.5
    endloop
  endfacet
  facet normal 0 1 0
    outer loop
      vertex -10.5 5.5 2.5
      vertex 10.5 5.5 0
      vertex -10.5 5.5 0
    endloop
  endfacet
  facet normal 0 0 -1
    outer loop
      vertex -10.5 -5.5 0
      vertex 10.5 5.5 0
      vertex 10.5 -5.5 0
    endloop
  endfacet
  facet normal -0 0 -1
    outer loop
      vertex 10.5 5.5 0
      vertex -10.5 -5.5 0
      vertex -10.5 5.5 0
    endloop
  endfacet
  facet normal 0 -1 0
    outer loop
      vertex -10.5 -5.5 0
      vertex 10.5 -5.5 2.5
      vertex -10.5 -5.5 2.5
    endloop
  endfacet
  facet normal 0 -1 -0
    outer loop
      vertex 10.5 -5.5 2.5
      vertex -10.5 -5.5 0
      vertex 10.5 -5.5 0
    endloop
  endfacet
  facet normal 0 0 -1
    outer loop
      vertex -10.5 5.5 2.5
      vertex 10.5 11 2.5
      vertex 10.5 5.5 2.5
    endloop
  endfacet
  facet normal -0 0 -1
    outer loop
      vertex 10.5 11 2.5
      vertex -10.5 5.5 2.5
      vertex -10.5 11 2.5
    endloop
  endfacet
  facet normal 0 0 -1
    outer loop
      vertex -10.5 -11 2.5
      vertex 10.5 -5.5 2.5
      vertex 10.5 -11 2.5
    endloop
  endfacet
  facet normal -0 0 -1
    outer loop
      vertex 10.5 -5.5 2.5
      vertex -10.5 -11 2.5
      vertex -10.5 -5.5 2.5
    endloop
  endfacet
  facet normal 0 -1 0
    outer loop
      vertex -10.5 -11 2.5
      vertex 10.5 -11 5.5
      vertex -10.5 -11 5.5
    endloop
  endfacet
  facet normal 0 -1 -0
    outer loop
      vertex 10.5 -11 5.5
      vertex -10.5 -11 2.5
      vertex 10.5 -11 2.5
    endloop
  endfacet
  facet normal 0 1 -0
    outer loop
      vertex 10.5 11 2.5
      vertex -10.5 11 5.5
      vertex 10.5 11 5.5
    endloop
  endfacet
  facet normal 0 1 0
    outer loop
      vertex -10.5 11 5.5
      vertex 10.5 11 2.5
      vertex -10.5 11 2.5
    endloop
  endfacet
  facet normal -1 0 0
    outer loop
      vertex -4.5 -3 5.5
      vertex -4.5 3 8.5
      vertex -4.5 3 5.5
    endloop
  endfacet
  facet normal -1 -0 0
    outer loop
      vertex -4.5 3 8.5
      vertex -4.5 -3 5.5
      vertex -4.5 -3 8.5
    endloop
  endfacet
  facet normal -0 0 1
    outer loop
      vertex -4.5 3 8.5
      vertex -1 -3 8.5
      vertex -1 3 8.5
    endloop
  endfacet
  facet normal 0 0 1
    outer loop
      vertex -1 -3 8.5
      vertex -4.5 3 8.5
      vertex -4.5 -3 8.5
    endloop
  endfacet
  facet normal 1 -0 0
    outer loop
      vertex -1 -3 8.5
      vertex -1 3 5.5
      vertex -1 3 8.5
    endloop
  endfacet
  facet normal 1 0 0
    outer loop
      vertex -1 3 5.5
      vertex -1 -3 8.5
      vertex -1 -3 5.5
    endloop
  endfacet
  facet normal 0 -1 0
    outer loop
      vertex -4.5 -3 5.5
      vertex -1 -3 8.5
      vertex -4.5 -3 8.5
    endloop
  endfacet
  facet normal 0 -1 -0
    outer loop
      vertex -1 -3 8.5
      vertex -4.5 -3 5.5
      vertex -1 -3 5.5
    endloop
  endfacet
  facet normal 0 1 -0
    outer loop
      vertex -1 3 5.5
      vertex -4.5 3 8.5
      vertex -1 3 8.5
    endloop
  endfacet
  facet normal 0 1 0
    outer loop
      vertex -4.5 3 8.5
      vertex -1 3 5.5
      vertex -4.5 3 5.5
    endloop
  endfacet
endsolid OpenSCAD_Model
